<?xml version="1.0" standalone="no"?>
<!DOCTYPE svg PUBLIC "-//W3C//DTD SVG 20010904//EN"
 "http://www.w3.org/TR/2001/REC-SVG-20010904/DTD/svg10.dtd">
<svg version="1.0" xmlns="http://www.w3.org/2000/svg"
 width="320.000000pt" height="307.000000pt" viewBox="0 0 1280.000000 1222.000000"
 preserveAspectRatio="xMidYMid meet">
<metadata>
Created by Deniska small pipiska
</metadata>
<g transform="translate(0.000000,1222.000000) scale(0.100000,-0.100000)"
fill="#FFF" stroke="none">
<path d="M5265 12204 c-22 -9 -148 -46 -280 -84 -269 -77 -344 -104 -460 -162
-192 -96 -299 -218 -355 -405 l-22 -72 -91 -58 c-51 -31 -166 -106 -257 -166
-91 -60 -169 -112 -175 -115 -5 -3 1 7 13 23 89 115 171 267 222 410 32 93
142 505 134 505 -26 0 -365 -217 -489 -314 -91 -70 -248 -229 -313 -315 -74
-99 -145 -236 -173 -337 -30 -108 -30 -244 1 -334 l22 -65 -34 -29 c-168 -146
-292 -263 -403 -379 l-133 -139 49 95 c59 115 101 239 131 389 18 93 22 148
22 313 1 183 -18 463 -33 492 -4 7 -43 -33 -96 -100 -445 -552 -529 -707 -566
-1042 -24 -227 30 -533 96 -543 13 -2 47 20 93 58 l73 62 -89 -119 c-146 -193
-344 -500 -418 -645 -14 -28 -27 -48 -30 -46 -2 3 1 29 6 59 20 103 28 270 20
402 -12 193 -30 265 -177 727 -31 96 -59 179 -63 183 -8 9 -22 -34 -140 -403
-119 -375 -159 -535 -180 -730 -27 -241 19 -427 169 -693 l66 -118 29 33 c16
18 26 26 23 18 -3 -8 -23 -60 -45 -116 -53 -130 -110 -297 -157 -454 -20 -69
-39 -132 -42 -140 -3 -8 -16 30 -28 85 -55 236 -162 488 -289 679 -51 78 -124
192 -161 253 -67 112 -99 152 -111 140 -4 -4 -11 -89 -15 -189 -5 -101 -13
-246 -19 -323 -14 -204 -12 -532 5 -655 46 -341 150 -537 357 -671 34 -22 72
-42 85 -45 27 -7 27 1 8 -172 -18 -167 -35 -435 -35 -557 l0 -90 -56 104
c-108 203 -288 471 -409 608 -63 71 -397 343 -422 343 -11 0 -14 -7 -10 -22
13 -61 70 -352 98 -503 116 -631 291 -959 629 -1181 72 -47 197 -116 217 -119
1 0 11 -61 23 -135 27 -170 72 -386 109 -531 16 -61 26 -107 22 -103 -4 5 -28
36 -53 69 -112 148 -198 215 -783 607 -150 100 -370 229 -373 219 -4 -12 368
-764 453 -916 104 -184 160 -260 280 -380 120 -121 260 -221 387 -279 122 -55
280 -106 331 -106 33 0 47 -4 47 -13 0 -37 290 -587 385 -732 16 -24 7 -19
-50 27 -106 85 -232 161 -420 253 -203 99 -313 138 -554 200 -99 25 -229 63
-288 84 -168 60 -171 49 -30 -121 56 -67 149 -184 206 -258 221 -287 600 -623
814 -720 89 -40 271 -94 391 -115 77 -14 126 -16 222 -11 68 3 134 10 147 15
22 9 32 1 104 -82 174 -200 427 -447 623 -609 37 -30 9 -19 -154 64 -222 112
-243 118 -556 162 -510 72 -1090 118 -1090 87 0 -14 60 -61 275 -216 372 -269
536 -368 745 -448 293 -113 445 -147 665 -147 199 0 338 27 503 97 82 35 82
36 65 56 -10 11 11 1 47 -23 190 -128 624 -361 822 -440 32 -13 56 -25 55 -27
-2 -2 -51 5 -108 14 -77 12 -166 17 -339 17 -304 0 -335 -4 -960 -123 -113
-21 -278 -52 -367 -68 -90 -15 -162 -32 -160 -37 5 -14 778 -243 912 -270 194
-39 323 -49 552 -43 384 10 611 85 823 271 l94 82 130 -37 c151 -43 356 -89
504 -115 l103 -18 -72 -18 c-190 -50 -298 -97 -864 -378 -430 -214 -585 -297
-585 -312 0 -20 583 2 840 32 287 35 600 125 845 245 147 72 258 161 375 298
l65 77 196 0 196 0 139 -131 c258 -244 297 -265 734 -397 275 -83 327 -91 884
-128 425 -28 440 -27 377 26 -39 33 -264 147 -364 185 -92 34 -154 66 -272
140 -219 137 -533 267 -822 340 -40 10 -72 20 -70 21 1 1 92 20 202 43 199 40
422 98 565 145 51 17 68 20 53 9 -13 -8 -23 -26 -23 -38 0 -61 245 -214 459
-285 140 -47 264 -62 521 -63 188 0 244 3 340 21 193 36 810 217 913 269 36
18 34 39 -5 52 -50 15 -409 86 -633 125 -445 77 -690 102 -852 86 -171 -17
-374 -53 -478 -85 -94 -28 -70 -14 75 44 80 32 233 101 340 154 677 333 1266
798 1777 1403 41 48 42 49 40 19 -3 -40 34 -56 144 -63 226 -13 562 81 759
213 347 231 507 382 691 652 86 125 202 257 297 337 35 29 38 49 6 54 -11 1
-89 -17 -174 -42 -85 -25 -219 -61 -296 -80 -172 -43 -269 -79 -431 -156 -235
-112 -454 -254 -606 -391 -78 -71 -80 -72 -51 -29 132 193 355 600 439 800 15
36 29 67 31 69 2 2 13 -4 24 -14 17 -16 26 -17 74 -7 144 29 403 150 541 252
106 79 233 206 293 294 93 135 377 677 501 957 50 113 60 149 42 149 -21 0
-464 -280 -712 -451 -231 -158 -365 -284 -474 -444 -26 -38 -48 -71 -49 -72
-2 -2 13 52 31 120 57 207 121 517 148 718 5 43 7 45 33 41 19 -2 53 10 105
36 258 134 421 300 550 557 101 203 151 376 221 765 26 140 58 296 72 347 40
143 27 160 -62 85 -86 -72 -394 -389 -513 -527 -158 -184 -253 -339 -322 -524
l-28 -76 -1 135 c0 218 -35 686 -57 780 l-6 25 24 -22 c22 -20 27 -20 62 -8
50 17 135 84 207 162 188 205 271 588 242 1115 -12 227 -41 604 -48 627 -9 30
-350 -543 -454 -761 -88 -188 -99 -243 -101 -508 l-1 -185 -24 95 c-49 193
-87 327 -131 464 -49 153 -178 487 -224 578 -49 97 -32 79 31 -34 67 -119 88
-138 125 -114 91 60 235 417 252 623 3 40 0 107 -6 150 -28 178 -121 524 -223
826 -64 191 -75 217 -94 217 -31 0 -172 -340 -210 -510 -35 -152 -35 -773 0
-867 8 -24 13 -43 11 -43 -2 0 -29 48 -60 107 -186 347 -420 690 -692 1012
-121 144 -434 459 -567 572 -77 65 -95 85 -80 88 31 5 41 19 53 68 15 58 16
252 1 318 -20 93 -63 175 -164 310 -82 110 -301 326 -416 411 -109 81 -337
224 -357 224 -20 0 -16 -59 13 -173 31 -126 97 -347 121 -407 42 -105 126
-233 243 -372 l45 -53 -35 23 c-81 53 -147 90 -350 201 l-215 117 -7 60 c-23
210 -199 416 -459 538 -89 42 -619 208 -709 222 -34 6 -40 4 -40 -11 0 -46
275 -400 435 -561 153 -154 310 -241 521 -289 l103 -23 228 -157 c144 -99 217
-155 198 -151 -148 30 -314 33 -467 7 -260 -45 -676 -176 -718 -226 -26 -31
44 -47 351 -80 129 -13 288 -32 354 -41 260 -34 797 -28 910 12 48 16 44 19
233 -140 167 -139 221 -189 197 -181 -217 77 -539 113 -851 95 -171 -9 -224
-21 -224 -50 0 -22 23 -37 125 -80 44 -18 204 -91 355 -161 482 -222 654 -274
977 -295 l104 -7 38 -46 c101 -123 321 -421 321 -436 0 -3 -21 10 -47 29 -76
54 -249 142 -374 189 -313 119 -669 200 -669 153 0 -8 46 -55 103 -104 160
-139 627 -524 714 -588 198 -147 481 -310 592 -340 l64 -18 35 -76 c84 -185
225 -558 199 -530 -187 204 -288 298 -400 373 -212 142 -619 348 -643 325 -10
-11 24 -63 102 -153 148 -172 273 -352 392 -565 36 -63 94 -153 130 -199 136
-175 403 -418 557 -508 36 -21 67 -45 70 -53 10 -33 56 -376 70 -530 14 -151
19 -313 8 -265 -34 155 -137 381 -222 488 -80 100 -637 664 -647 655 -16 -17
215 -751 316 -1003 124 -310 298 -594 485 -794 l62 -66 -8 -80 c-23 -225 -95
-664 -111 -681 -2 -2 -9 43 -16 99 -25 224 -85 380 -276 711 -177 309 -298
490 -320 483 -18 -6 -18 -96 -1 -382 25 -429 54 -781 76 -930 29 -191 159
-504 272 -653 l47 -64 -56 -136 c-86 -209 -342 -720 -310 -620 3 10 11 68 17
129 17 160 6 463 -21 609 -80 435 -188 736 -243 681 -6 -6 -16 -62 -23 -126
-13 -111 -33 -208 -138 -668 -71 -312 -88 -423 -93 -610 -6 -202 8 -300 74
-490 l43 -129 -52 -66 c-104 -133 -362 -432 -373 -432 -2 0 1 15 6 33 70 243
95 643 64 1037 -9 124 -19 226 -20 228 -2 2 -31 -52 -65 -120 -108 -211 -278
-517 -346 -621 -193 -295 -242 -459 -266 -901 l-12 -226 -140 -98 c-177 -124
-416 -275 -424 -267 -2 2 12 25 31 52 112 157 231 430 292 673 27 105 78 405
73 422 -5 14 -539 -503 -685 -663 -315 -347 -408 -504 -447 -758 l-12 -75
-149 -49 c-83 -27 -217 -67 -300 -88 l-150 -38 45 36 c168 136 396 421 500
627 33 65 79 203 80 238 0 4 -53 -18 -117 -49 -166 -78 -242 -110 -448 -188
-320 -120 -437 -192 -591 -366 -140 -158 -229 -308 -221 -370 l5 -36 -61 -7
c-33 -3 -181 -6 -328 -6 -203 0 -270 3 -276 13 -4 6 -28 60 -54 119 -25 59
-62 133 -80 164 -128 211 -322 345 -709 489 -213 80 -347 137 -467 202 -57 30
-103 50 -103 45 0 -26 46 -154 77 -217 106 -210 369 -536 535 -663 27 -20 45
-38 40 -40 -20 -6 -444 109 -587 161 l-40 14 -7 73 c-25 240 -115 402 -391
700 -69 74 -263 275 -431 445 l-307 310 6 -45 c41 -305 134 -646 236 -860 53
-110 88 -170 152 -259 l39 -53 -48 28 c-191 109 -544 340 -559 364 -3 4 3 45
12 91 53 281 -80 746 -327 1138 -71 112 -222 386 -306 554 -24 48 -48 87 -53
87 -20 0 -29 -752 -11 -973 12 -147 37 -251 80 -339 l31 -63 -52 50 c-76 74
-275 298 -368 414 l-80 101 19 33 c53 84 107 337 117 543 9 190 -19 373 -138
899 -75 327 -109 504 -109 564 0 44 -14 71 -30 55 -6 -6 -29 -52 -50 -102
-103 -240 -230 -862 -217 -1067 6 -82 48 -356 63 -401 3 -11 -18 19 -46 66
-72 119 -258 498 -324 660 l-54 134 34 26 c111 83 272 410 309 628 45 264 120
1321 95 1346 -27 27 -170 -173 -341 -479 -194 -348 -254 -534 -268 -830 l-6
-140 -23 95 c-52 213 -101 491 -122 690 -6 58 -13 118 -15 134 -4 25 -3 27 10
16 22 -18 44 5 180 185 147 196 275 387 315 471 30 64 136 349 158 424 5 19
29 93 51 164 60 187 158 514 169 564 6 23 6 42 2 42 -25 0 -468 -434 -572
-560 -152 -184 -257 -406 -313 -663 -10 -43 -19 -76 -21 -74 -7 6 16 407 30
542 8 72 24 199 37 283 18 123 25 152 38 152 24 0 89 40 193 117 239 178 415
382 723 838 81 121 199 288 262 371 62 83 113 158 113 167 0 22 -32 11 -157
-52 -231 -116 -572 -328 -688 -427 -73 -63 -182 -187 -253 -288 -23 -33 -42
-57 -42 -54 0 32 151 433 226 604 l45 100 58 12 c106 22 348 151 581 309 164
112 267 192 425 333 72 64 189 163 260 222 156 127 187 157 183 177 -5 25
-102 18 -253 -18 -323 -77 -588 -192 -809 -350 -43 -31 -88 -63 -99 -71 -43
-31 271 412 377 530 26 29 28 30 122 30 260 0 552 77 879 232 94 44 244 114
335 154 240 107 275 125 278 150 2 17 -5 24 -30 34 -89 31 -561 29 -768 -4
-95 -15 -238 -53 -308 -81 l-37 -15 50 45 c75 68 262 225 331 277 l60 46 80
-23 c196 -56 483 -58 909 -5 333 41 515 60 584 61 63 0 122 17 129 37 9 30
-329 158 -544 206 -60 14 -153 30 -207 37 -124 15 -418 6 -502 -15 -33 -8 -61
-13 -62 -12 -1 1 37 32 85 68 48 36 147 111 220 167 74 55 138 98 143 95 21
-12 222 18 298 45 165 58 344 189 524 383 236 255 349 421 306 449 -17 11 -15
11 -64 -7z"/>
<path d="M10175 11360 c2 -74 7 -234 10 -355 7 -268 21 -424 46 -524 26 -102
124 -297 203 -401 90 -120 294 -310 332 -310 77 0 126 458 73 695 -41 189
-138 376 -307 595 -64 82 -278 341 -335 404 l-28 31 6 -135z"/>
<path d="M11300 2203 c-621 -44 -808 -67 -1031 -123 -270 -68 -466 -163 -702
-338 -156 -116 -198 -171 -172 -223 38 -72 352 -140 580 -125 263 18 569 118
832 272 302 177 735 472 750 511 3 8 0 19 -8 24 -13 8 -149 9 -249 2z"/>
</g>
</svg>
